<svg width="200" height="200" viewBox="0 0 200 200" fill="none" xmlns="http://www.w3.org/2000/svg">
<path d="M53.8486 89.1631C54.273 86.2741 54.9295 83.3221 56.7372 81.029C57.8578 79.6076 59.1492 78.5711 60.8351 77.6879C63.6225 76.2278 66.8397 75.9118 69.9864 75.9118H81.9135L73.019 73.6882L75.1642 57.0041C75.9509 50.8857 76.9764 44.5039 82.0197 40.9513C86.8449 37.5523 93.4586 37 99.3609 37H142.072C146.153 37 150.617 37.4524 153.718 40.1049C157.935 43.7124 157.889 49.9062 157.19 55.4112L152.699 90.7353H121.939L125.274 64.7941H104.891L101.942 83.9602C101.442 87.212 100.535 90.5206 98.2804 92.9163C96.9157 94.3662 95.4661 95.2919 93.6399 96.0177C91.5662 96.8419 89.3077 97.0353 87.0762 97.0353H83.3959L74.5014 163H43L53.8486 89.1631Z" fill="#FFAD33"/>
<path d="M85.6196 76.2824L93.6293 87.2582C94.8973 88.9957 96.8576 90.0968 99.0012 90.2754L100.073 90.3647C98.5907 93.7 94.1435 97.0353 88.2138 97.0353H83.3959L85.6196 76.2824Z" fill="#966214"/>
</svg>
