<svg width="200" height="200" viewBox="0 0 200 200" fill="none" xmlns="http://www.w3.org/2000/svg">
<circle cx="100" cy="100" r="100" fill="#5865F2"/>
<path d="M143.7 60.07C135.347 56.2457 126.528 53.5326 117.47 52C116.23 54.2159 115.109 56.4957 114.11 58.83C104.461 57.376 94.6488 57.376 84.9999 58.83C84.0005 56.496 82.8789 54.2161 81.6399 52C72.5758 53.5455 63.7515 56.2651 55.3899 60.09C38.7899 84.65 34.2899 108.6 36.5399 132.21C46.2613 139.393 57.1423 144.855 68.7099 148.36C71.3146 144.857 73.6194 141.14 75.5999 137.25C71.8382 135.845 68.2076 134.112 64.7499 132.07C65.6599 131.41 66.5499 130.73 67.4099 130.07C77.4709 134.801 88.4519 137.255 99.5699 137.255C110.688 137.255 121.669 134.801 131.73 130.07C132.6 130.78 133.49 131.46 134.39 132.07C130.926 134.115 127.288 135.852 123.52 137.26C125.498 141.149 127.803 144.862 130.41 148.36C141.987 144.869 152.877 139.409 162.6 132.22C165.24 104.84 158.09 81.11 143.7 60.07ZM78.4499 117.69C72.1799 117.69 66.9999 112 66.9999 105C66.9999 98 71.9999 92.26 78.4299 92.26C84.8599 92.26 89.9999 98 89.8899 105C89.7799 112 84.8399 117.69 78.4499 117.69ZM120.69 117.69C114.41 117.69 109.25 112 109.25 105C109.25 98 114.25 92.26 120.69 92.26C127.13 92.26 132.23 98 132.12 105C132.01 112 127.08 117.69 120.69 117.69Z" fill="white"/>
</svg>
